# xmcd
#
# Track frame offsets: 
#        150
#        13980
#        29265
#        41082
#        54422
#        66885
#        79080
#        92515
#        105000
#        119355
#        131095
#        143755
#        154805
#        167485
#        181277
#        195662
#
# Disc length: 2799 seconds
#
# Revision: 0
# Processed by: cddbd v1.5.2PL0 Copyright (c) Steve Scherf et al.
# Submitted via: ExactAudioCopy v0.95b4
#
DISCID=cd0aed10
DTITLE=Lil Green - 1947-1951
DYEAR=2000
DGENRE=Blues
TTITLE0=I Want A Good Man Bad
TTITLE1=You've Been A Good Old Wagon
TTITLE2=I Want A Man
TTITLE3=Lonley Woman
TTITLE4=Take Me Back To Little Rock
TTITLE5=Aggravatin' Papa
TTITLE6=Daddy Daddy Blues
TTITLE7=Outside Of That
TTITLE8=I Gotta Have It
TTITLE9=Walkin' And Talkin'
TTITLE10=Rock Me Baby
TTITLE11=Them There Eyes
TTITLE12=Running Around In Circles
TTITLE13=My Be-Bop Daddy
TTITLE14=Every Time
TTITLE15=I've Got That Feeling
EXTD=
EXTT0=
EXTT1=
EXTT2=
EXTT3=
EXTT4=
EXTT5=
EXTT6=
EXTT7=
EXTT8=
EXTT9=
EXTT10=
EXTT11=
EXTT12=
EXTT13=
EXTT14=
EXTT15=
PLAYORDER=
